<!DOCTYPE svg PUBLIC "-//W3C//DTD SVG 1.1//EN" "http://www.w3.org/Graphics/SVG/1.1/DTD/svg11.dtd">
<svg version="1.1" xmlns="http://www.w3.org/2000/svg" xmlns:xlink="http://www.w3.org/1999/xlink" width="100%" height="100%" viewBox="0 5 200 100">
 <title>Prominence definition</title>
 <desc>Visualisation of prominence definition, by CMG Lee, adapted by AT. Vertical arrows show the prominence of three peaks. Dashed lines show the lowest horizontal baseline which do not contain higher peaks. </desc>
 <defs>
  <pattern id="pattern" patternUnits="userSpaceOnUse" width="4" height="2">
   <path d="M 0,1 C 2,0 2,2 4,1" stroke-linecap="round" stroke="#cccccc" fill="none"/>
  </pattern>
  <path id="arrowhead_up" d="M -2,5 L 0,0 L 2,5" fill="none"/>
  <use  id="arrowhead_down" xlink:href="#arrowhead_up" transform="rotate(180)"/>
 </defs>
 <circle cx="0" cy="0" r="99999" fill="#ffffff"/>
 <g stroke-linejoin="round" stroke-width="0.5" stroke="#000000" fill="none">
  <path d="M 10,100 C 40,100 50,10 60,10 S 80,80 90,80 S 100,40 110,40 S 120,60 130,60 S 140,25 150,25 S 170,100 190,100" stroke-width="1" fill="#eeeeee"/>
  <path d="M 90,80 H 175 M 130,60 H 100" stroke-dasharray="7,4"/>
  <path d="M 60,10 V 100 M 110,40 V 60 M 150,25 V 80"/>
  <use xlink:href="#arrowhead_up"   transform="translate( 60, 10)"/>
  <use xlink:href="#arrowhead_up"   transform="translate(110, 40)"/>
  <use xlink:href="#arrowhead_up"   transform="translate(150, 25)"/>
  <use xlink:href="#arrowhead_down" transform="translate( 60,100)"/>
  <use xlink:href="#arrowhead_down" transform="translate(110, 60)"/>
  <use xlink:href="#arrowhead_down" transform="translate(150, 80)"/>
 </g>
</svg>