<?xml version="1.0" encoding="utf-8" standalone="no"?>
<!DOCTYPE svg PUBLIC "-//W3C//DTD SVG 1.1//EN"
  "http://www.w3.org/Graphics/SVG/1.1/DTD/svg11.dtd">
<!-- Created with matplotlib (http://matplotlib.org/) -->
<svg height="180pt" version="1.1" viewBox="0 0 180 180" width="180pt" xmlns="http://www.w3.org/2000/svg" xmlns:xlink="http://www.w3.org/1999/xlink">
 <defs>
  <style type="text/css">
*{stroke-linecap:butt;stroke-linejoin:round;}
  </style>
 </defs>
 <g id="figure_1">
  <g id="patch_1">
   <path d="M 0 180 
L 180 180 
L 180 0 
L 0 0 
z
" style="fill:none;"/>
  </g>
  <g id="axes_1">
   <g id="patch_2">
    <path d="M 90 176.4 
C 112.913548 176.4 134.891701 167.296351 151.094026 151.094026 
C 167.296351 134.891701 176.4 112.913548 176.4 90 
C 176.4 67.086452 167.296351 45.108299 151.094026 28.905974 
C 134.891701 12.703649 112.913548 3.6 90 3.6 
C 67.086452 3.6 45.108299 12.703649 28.905974 28.905974 
C 12.703649 45.108299 3.6 67.086452 3.6 90 
C 3.6 112.913548 12.703649 134.891701 28.905974 151.094026 
C 45.108299 167.296351 67.086452 176.4 90 176.4 
z
" style="fill:#fff0bb;stroke:#505080;stroke-linejoin:miter;stroke-width:3;"/>
   </g>
   <g id="line2d_1">
    <path d="M 9 116.441014 
L 9.596721 116.740766 
L 10.193443 116.71335 
L 10.790164 116.369629 
L 11.386885 115.722355 
L 11.983607 114.786018 
L 12.878689 112.875059 
L 13.77377 110.410203 
L 14.967213 106.376621 
L 16.459016 100.372156 
L 18.547541 90.791459 
L 23.321311 68.408035 
L 25.111475 61.348772 
L 26.603279 56.465757 
L 27.796721 53.316604 
L 28.691803 51.427401 
L 29.586885 49.95528 
L 30.481967 48.903296 
L 31.377049 48.267709 
L 31.97377 48.070557 
L 32.570492 48.04959 
L 33.167213 48.199212 
L 34.062295 48.728749 
L 34.957377 49.600725 
L 35.852459 50.784732 
L 37.045902 52.789846 
L 38.537705 55.857207 
L 40.327869 60.11836 
L 46.593443 75.628902 
L 48.085246 78.588771 
L 49.577049 81.029094 
L 50.770492 82.563312 
L 51.963934 83.704777 
L 52.859016 84.298715 
L 53.754098 84.669288 
L 54.64918 84.82147 
L 55.544262 84.763448 
L 56.439344 84.506337 
L 57.632787 83.877884 
L 58.82623 82.95879 
L 60.318033 81.469035 
L 62.108197 79.307483 
L 65.091803 75.245977 
L 68.07541 71.27325 
L 69.865574 69.205592 
L 71.357377 67.759954 
L 72.84918 66.61214 
L 74.042623 65.92621 
L 75.236066 65.45352 
L 76.429508 65.19356 
L 77.622951 65.139927 
L 78.816393 65.280879 
L 80.308197 65.70532 
L 81.8 66.367448 
L 83.590164 67.408587 
L 86.27541 69.285826 
L 91.04918 72.698266 
L 93.137705 73.914958 
L 94.927869 74.727518 
L 96.718033 75.295438 
L 98.508197 75.606955 
L 100.298361 75.667188 
L 102.088525 75.496221 
L 104.177049 75.048314 
L 106.563934 74.291624 
L 110.740984 72.673075 
L 114.321311 71.369522 
L 117.006557 70.631072 
L 119.393443 70.213653 
L 121.780328 70.039394 
L 124.167213 70.09676 
L 126.852459 70.393994 
L 130.432787 71.046286 
L 138.190164 72.556397 
L 141.472131 72.926137 
L 144.455738 73.051239 
L 147.737705 72.96927 
L 151.914754 72.62023 
L 162.954098 71.552094 
L 167.131148 71.436706 
L 171.904918 71.54211 
L 172.8 71.583084 
L 172.8 71.583084 
" style="fill:none;stroke:#505080;stroke-linecap:round;stroke-width:3;"/>
   </g>
   <g id="text_1">
    <!-- SCP -->
    <defs>
     <path d="M 59.90625 70.609375 
L 59.90625 55.171875 
Q 53.90625 57.859375 48.1875 59.21875 
Q 42.484375 60.59375 37.40625 60.59375 
Q 30.671875 60.59375 27.4375 58.734375 
Q 24.21875 56.890625 24.21875 52.984375 
Q 24.21875 50.046875 26.390625 48.40625 
Q 28.5625 46.78125 34.28125 45.609375 
L 42.28125 44 
Q 54.4375 41.546875 59.5625 36.5625 
Q 64.703125 31.59375 64.703125 22.40625 
Q 64.703125 10.359375 57.546875 4.46875 
Q 50.390625 -1.421875 35.6875 -1.421875 
Q 28.765625 -1.421875 21.78125 -0.09375 
Q 14.796875 1.21875 7.8125 3.8125 
L 7.8125 19.671875 
Q 14.796875 15.96875 21.3125 14.078125 
Q 27.828125 12.203125 33.890625 12.203125 
Q 40.046875 12.203125 43.3125 14.25 
Q 46.578125 16.3125 46.578125 20.125 
Q 46.578125 23.53125 44.359375 25.390625 
Q 42.140625 27.25 35.5 28.71875 
L 28.21875 30.328125 
Q 17.28125 32.671875 12.21875 37.796875 
Q 7.171875 42.921875 7.171875 51.609375 
Q 7.171875 62.5 14.203125 68.359375 
Q 21.234375 74.21875 34.421875 74.21875 
Q 40.4375 74.21875 46.78125 73.3125 
Q 53.125 72.40625 59.90625 70.609375 
z
" id="DejaVuSans-Bold-53"/>
     <path d="M 67 4 
Q 61.8125 1.3125 56.203125 -0.046875 
Q 50.59375 -1.421875 44.484375 -1.421875 
Q 26.265625 -1.421875 15.625 8.765625 
Q 4.984375 18.953125 4.984375 36.375 
Q 4.984375 53.859375 15.625 64.03125 
Q 26.265625 74.21875 44.484375 74.21875 
Q 50.59375 74.21875 56.203125 72.84375 
Q 61.8125 71.484375 67 68.796875 
L 67 53.71875 
Q 61.765625 57.28125 56.6875 58.9375 
Q 51.609375 60.59375 46 60.59375 
Q 35.9375 60.59375 30.171875 54.140625 
Q 24.421875 47.703125 24.421875 36.375 
Q 24.421875 25.09375 30.171875 18.640625 
Q 35.9375 12.203125 46 12.203125 
Q 51.609375 12.203125 56.6875 13.859375 
Q 61.765625 15.53125 67 19.09375 
z
" id="DejaVuSans-Bold-43"/>
     <path d="M 9.1875 72.90625 
L 40.375 72.90625 
Q 54.296875 72.90625 61.734375 66.71875 
Q 69.1875 60.546875 69.1875 49.125 
Q 69.1875 37.640625 61.734375 31.46875 
Q 54.296875 25.296875 40.375 25.296875 
L 27.984375 25.296875 
L 27.984375 0 
L 9.1875 0 
z
M 27.984375 59.28125 
L 27.984375 38.921875 
L 38.375 38.921875 
Q 43.84375 38.921875 46.828125 41.578125 
Q 49.8125 44.234375 49.8125 49.125 
Q 49.8125 54 46.828125 56.640625 
Q 43.84375 59.28125 38.375 59.28125 
z
" id="DejaVuSans-Bold-50"/>
    </defs>
    <g style="fill:#00b2ff;" transform="translate(16.802031 135)scale(0.62 -0.62)">
     <use xlink:href="#DejaVuSans-Bold-53"/>
     <use x="72.021484" xlink:href="#DejaVuSans-Bold-43"/>
     <use x="145.410156" xlink:href="#DejaVuSans-Bold-50"/>
    </g>
   </g>
   <g id="text_2">
    <!-- y -->
    <defs>
     <path d="M 1.21875 54.6875 
L 18.703125 54.6875 
L 33.40625 17.578125 
L 45.90625 54.6875 
L 63.375 54.6875 
L 40.375 -5.171875 
Q 36.921875 -14.3125 32.296875 -17.9375 
Q 27.6875 -21.578125 20.125 -21.578125 
L 10.015625 -21.578125 
L 10.015625 -10.109375 
L 15.484375 -10.109375 
Q 19.921875 -10.109375 21.9375 -8.6875 
Q 23.96875 -7.28125 25.09375 -3.609375 
L 25.59375 -2.09375 
z
" id="DejaVuSans-Bold-79"/>
    </defs>
    <g style="fill:#ff3b00;" transform="translate(122.303125 146.7)scale(0.5 -0.5)">
     <use xlink:href="#DejaVuSans-Bold-79"/>
    </g>
   </g>
  </g>
 </g>
</svg>
