<?xml version="1.0" encoding="utf-8" standalone="no"?>
<!DOCTYPE svg PUBLIC "-//W3C//DTD SVG 1.1//EN"
  "http://www.w3.org/Graphics/SVG/1.1/DTD/svg11.dtd">
<!-- Created with matplotlib (http://matplotlib.org/) -->
<svg height="288pt" version="1.1" viewBox="0 0 1209 288" width="1209pt" xmlns="http://www.w3.org/2000/svg" xmlns:xlink="http://www.w3.org/1999/xlink">
 <defs>
  <style type="text/css">
*{stroke-linecap:butt;stroke-linejoin:round;}
  </style>
 </defs>
 <g id="figure_1">
  <g id="patch_1">
   <path d="M 0 288 
L 1209.6 288 
L 1209.6 0 
L 0 0 
z
" style="fill:none;"/>
  </g>
  <g id="axes_1">
   <g id="patch_2">
    <path d="M 604.8 282.24 
C 641.461677 282.24 676.626721 267.674162 702.550441 241.750441 
C 728.474162 215.826721 743.04 180.661677 743.04 144 
C 743.04 107.338323 728.474162 72.173279 702.550441 46.249559 
C 676.626721 20.325838 641.461677 5.76 604.8 5.76 
C 568.138323 5.76 532.973279 20.325838 507.049559 46.249559 
C 481.125838 72.173279 466.56 107.338323 466.56 144 
C 466.56 180.661677 481.125838 215.826721 507.049559 241.750441 
C 532.973279 267.674162 568.138323 282.24 604.8 282.24 
z
" style="fill:#fff0bb;stroke:#505080;stroke-linejoin:miter;stroke-width:3;"/>
   </g>
   <g id="line2d_1">
    <path d="M 475.2 186.305622 
L 475.677377 186.611819 
L 476.154754 186.785226 
L 476.632131 186.827714 
L 477.109508 186.741361 
L 477.586885 186.528438 
L 478.541639 185.732912 
L 479.496393 184.462961 
L 480.451148 182.743064 
L 481.405902 180.600094 
L 482.838033 176.656324 
L 484.270164 171.931696 
L 486.179672 164.612951 
L 488.08918 156.386912 
L 490.953443 142.975286 
L 496.681967 115.730358 
L 499.068852 105.482763 
L 500.978361 98.158035 
L 502.887869 91.778049 
L 504.32 87.684919 
L 505.752131 84.225608 
L 507.184262 81.424091 
L 508.139016 79.928448 
L 509.09377 78.731793 
L 510.048525 77.832865 
L 511.003279 77.228335 
L 511.958033 76.912891 
L 512.912787 76.879343 
L 513.867541 77.118739 
L 514.822295 77.62048 
L 515.777049 78.372451 
L 516.731803 79.36116 
L 518.163934 81.255571 
L 519.596066 83.595048 
L 521.028197 86.320991 
L 522.937705 90.449489 
L 525.32459 96.189376 
L 534.872131 119.971719 
L 536.781639 123.940118 
L 538.691148 127.410407 
L 540.123279 129.646551 
L 541.55541 131.54569 
L 542.987541 133.094129 
L 544.419672 134.284386 
L 545.851803 135.115009 
L 547.283934 135.590305 
L 548.238689 135.714352 
L 549.67082 135.621517 
L 551.102951 135.210139 
L 552.535082 134.502179 
L 553.967213 133.523223 
L 555.399344 132.301903 
L 557.308852 130.350456 
L 559.695738 127.503097 
L 562.56 123.699044 
L 569.243279 114.635007 
L 571.630164 111.773389 
L 574.017049 109.287139 
L 575.926557 107.621248 
L 577.836066 106.273397 
L 579.745574 105.260738 
L 581.177705 104.725632 
L 582.609836 104.382178 
L 584.041967 104.22651 
L 585.474098 104.251983 
L 587.383607 104.551504 
L 589.293115 105.128511 
L 591.202623 105.949128 
L 593.589508 107.258502 
L 596.45377 109.136811 
L 601.227541 112.628257 
L 605.523934 115.691286 
L 608.388197 117.480782 
L 610.775082 118.738458 
L 613.161967 119.743514 
L 615.548852 120.472701 
L 617.458361 120.850591 
L 619.845246 121.06808 
L 622.232131 121.01522 
L 624.619016 120.715795 
L 627.005902 120.202326 
L 629.870164 119.359111 
L 633.68918 117.974877 
L 643.714098 114.191236 
L 647.055738 113.235421 
L 649.92 112.62769 
L 652.784262 112.235665 
L 655.648525 112.06303 
L 658.512787 112.099633 
L 661.854426 112.376811 
L 665.673443 112.939299 
L 670.92459 113.973538 
L 679.994754 115.787791 
L 684.291148 116.405576 
L 688.110164 116.747931 
L 691.92918 116.881983 
L 696.225574 116.798939 
L 700.999344 116.471418 
L 708.16 115.716 
L 717.707541 114.739124 
L 723.436066 114.395708 
L 728.687213 114.298383 
L 734.415738 114.410657 
L 737.28 114.532934 
L 737.28 114.532934 
" style="fill:none;stroke:#505080;stroke-linecap:round;stroke-width:3;"/>
   </g>
   <g id="text_1">
    <!-- SCP -->
    <defs>
     <path d="M 59.90625 70.609375 
L 59.90625 55.171875 
Q 53.90625 57.859375 48.1875 59.21875 
Q 42.484375 60.59375 37.40625 60.59375 
Q 30.671875 60.59375 27.4375 58.734375 
Q 24.21875 56.890625 24.21875 52.984375 
Q 24.21875 50.046875 26.390625 48.40625 
Q 28.5625 46.78125 34.28125 45.609375 
L 42.28125 44 
Q 54.4375 41.546875 59.5625 36.5625 
Q 64.703125 31.59375 64.703125 22.40625 
Q 64.703125 10.359375 57.546875 4.46875 
Q 50.390625 -1.421875 35.6875 -1.421875 
Q 28.765625 -1.421875 21.78125 -0.09375 
Q 14.796875 1.21875 7.8125 3.8125 
L 7.8125 19.671875 
Q 14.796875 15.96875 21.3125 14.078125 
Q 27.828125 12.203125 33.890625 12.203125 
Q 40.046875 12.203125 43.3125 14.25 
Q 46.578125 16.3125 46.578125 20.125 
Q 46.578125 23.53125 44.359375 25.390625 
Q 42.140625 27.25 35.5 28.71875 
L 28.21875 30.328125 
Q 17.28125 32.671875 12.21875 37.796875 
Q 7.171875 42.921875 7.171875 51.609375 
Q 7.171875 62.5 14.203125 68.359375 
Q 21.234375 74.21875 34.421875 74.21875 
Q 40.4375 74.21875 46.78125 73.3125 
Q 53.125 72.40625 59.90625 70.609375 
z
" id="DejaVuSans-Bold-53"/>
     <path d="M 67 4 
Q 61.8125 1.3125 56.203125 -0.046875 
Q 50.59375 -1.421875 44.484375 -1.421875 
Q 26.265625 -1.421875 15.625 8.765625 
Q 4.984375 18.953125 4.984375 36.375 
Q 4.984375 53.859375 15.625 64.03125 
Q 26.265625 74.21875 44.484375 74.21875 
Q 50.59375 74.21875 56.203125 72.84375 
Q 61.8125 71.484375 67 68.796875 
L 67 53.71875 
Q 61.765625 57.28125 56.6875 58.9375 
Q 51.609375 60.59375 46 60.59375 
Q 35.9375 60.59375 30.171875 54.140625 
Q 24.421875 47.703125 24.421875 36.375 
Q 24.421875 25.09375 30.171875 18.640625 
Q 35.9375 12.203125 46 12.203125 
Q 51.609375 12.203125 56.6875 13.859375 
Q 61.765625 15.53125 67 19.09375 
z
" id="DejaVuSans-Bold-43"/>
     <path d="M 9.1875 72.90625 
L 40.375 72.90625 
Q 54.296875 72.90625 61.734375 66.71875 
Q 69.1875 60.546875 69.1875 49.125 
Q 69.1875 37.640625 61.734375 31.46875 
Q 54.296875 25.296875 40.375 25.296875 
L 27.984375 25.296875 
L 27.984375 0 
L 9.1875 0 
z
M 27.984375 59.28125 
L 27.984375 38.921875 
L 38.375 38.921875 
Q 43.84375 38.921875 46.828125 41.578125 
Q 49.8125 44.234375 49.8125 49.125 
Q 49.8125 54 46.828125 56.640625 
Q 43.84375 59.28125 38.375 59.28125 
z
" id="DejaVuSans-Bold-50"/>
    </defs>
    <g style="fill:#00b2ff;" transform="translate(486.808438 216)scale(1 -1)">
     <use xlink:href="#DejaVuSans-Bold-53"/>
     <use x="72.021484" xlink:href="#DejaVuSans-Bold-43"/>
     <use x="145.410156" xlink:href="#DejaVuSans-Bold-50"/>
    </g>
   </g>
   <g id="text_2">
    <!-- y -->
    <defs>
     <path d="M 1.21875 54.6875 
L 18.703125 54.6875 
L 33.40625 17.578125 
L 45.90625 54.6875 
L 63.375 54.6875 
L 40.375 -5.171875 
Q 36.921875 -14.3125 32.296875 -17.9375 
Q 27.6875 -21.578125 20.125 -21.578125 
L 10.015625 -21.578125 
L 10.015625 -10.109375 
L 15.484375 -10.109375 
Q 19.921875 -10.109375 21.9375 -8.6875 
Q 23.96875 -7.28125 25.09375 -3.609375 
L 25.59375 -2.09375 
z
" id="DejaVuSans-Bold-79"/>
    </defs>
    <g style="fill:#ff3b00;" transform="translate(658.114688 233.28)scale(0.75 -0.75)">
     <use xlink:href="#DejaVuSans-Bold-79"/>
    </g>
   </g>
  </g>
 </g>
</svg>
